<?xml version="1.0" encoding="UTF-8"?>
<!DOCTYPE svg PUBLIC "-//W3C//DTD SVG 1.1//EN" "http://www.w3.org/Graphics/SVG/1.1/DTD/svg11.dtd">
<!-- Creator: CorelDRAW 2018 (64 Bit Versão de avaliação) -->
<svg xmlns="http://www.w3.org/2000/svg" xml:space="preserve" width="65.242mm" height="26.0884mm" version="1.1" style="shape-rendering:geometricPrecision; text-rendering:geometricPrecision; image-rendering:optimizeQuality; fill-rule:evenodd; clip-rule:evenodd"
viewBox="0 0 5567.34 2226.22"
 xmlns:xlink="http://www.w3.org/1999/xlink">
 <defs>
  <style type="text/css">
   <![CDATA[
    .fil0 {fill:none}
    .fil1 {fill:#373435}
    .fil2 {fill:#00ADEF}
   ]]>
  </style>
 </defs>
 <g id="Camada_x0020_1">
  <metadata id="CorelCorpID_0Corel-Layer"/>
  <path class="fil0" d="M569.17 498.91l0 340.42m0 434.06l0 952.83 -569.17 0 0 -2226.22 569.17 0"/>
  <path class="fil0" d="M1957.32 0l548.08 0m837.52 0l2224.42 0 0 498.91m-569.17 0l-1086.08 0m-2516.22 0l-1395.87 0 0 -498.91 1395.87 0"/>
  <polyline class="fil0" points="3912.09,498.91 3912.09,2226.22 3342.92,2226.22 3342.92,0 3912.09,0 "/>
  <path class="fil0" d="M4164.24 0l569.17 0m0 498.91l0 1727.31 -569.17 0 0 -1727.31"/>
  <polyline class="fil0" points="4998.17,0 5567.34,0 5567.34,2226.22 4998.17,2226.22 4998.17,498.91 "/>
  <rect class="fil0" x="4164.24" y="498.91" width="569.16" height="340.42"/>
  <rect class="fil0" x="-0" y="498.91" width="569.16" height="340.42"/>
  <line class="fil0" x1="1215.77" y1="2219.02" x2="3254.66" y2= "2219.02" />
  <line class="fil0" x1="2235.21" y1="833.92" x2="2235.21" y2= "824.5" />
  <line class="fil0" x1="1215.77" y1="2219.02" x2="1957.32" y2= "0" />
  <line class="fil0" x1="3254.66" y1="2219.02" x2="2505.4" y2= "0" />
  <polyline class="fil0" points="2235.21,1678.67 1947.01,1678.67 2235.21,824.5 "/>
  <polyline class="fil0" points="1678.64,833.92 2235.21,833.92 1957.32,0 "/>
  <polyline class="fil0" points="-0,1273.39 -0,839.33 1395.87,839.33 1395.87,1273.39 569.17,1273.39 "/>
  <line class="fil0" x1="1395.87" y1="498.91" x2="1395.87" y2= "0" />
  <polyline class="fil0" points="2235.21,1678.67 2523.42,1678.67 2175.79,648.41 "/>
  <polygon class="fil1" points="569.17,498.91 1395.87,498.91 1395.87,0 -0,0 -0,498.91 "/>
  <polygon class="fil1" points="1395.87,839.33 569.17,839.33 -0,839.33 -0,2226.22 569.17,2226.22 569.17,1273.39 1395.87,1273.39 "/>
  <polygon class="fil1" points="2235.21,824.5 2523.42,1678.67 2235.21,1678.67 1947.01,1678.67 2232.03,833.92 1678.64,833.92 1215.77,2219.02 3254.66,2219.02 2505.4,0 1957.32,0 2233.63,829.19 "/>
  <polygon class="fil1" points="3342.92,0 3342.92,2226.22 3912.09,2226.22 3912.09,498.91 4164.24,498.91 4733.41,498.91 4998.17,498.91 4998.17,2226.22 5567.34,2226.22 5567.34,0 "/>
  <polygon class="fil1" points="4164.24,839.33 4164.24,2226.22 4733.41,2226.22 4733.41,839.33 "/>
  <polygon class="fil2" points="569.17,839.33 569.17,498.91 -0,498.91 -0,839.33 "/>
  <polygon class="fil2" points="1957.32,0 1678.64,833.92 2232.03,833.92 2233.63,829.19 "/>
  <polygon class="fil2" points="4164.24,498.91 4164.24,839.33 4733.41,839.33 4733.41,498.91 "/>
 </g>
</svg>
